# xmcd
#
# Track frame offsets: 
#        150
#        24247
#        46765
#        65675
#        84865
#        104662
#        130057
#        146430
#        158870
#        191740
#
# Disc length: 2776 seconds
#
# Revision: 1
# Processed by: cddbd v1.5.2PL0 Copyright (c) Steve Scherf et al.
# Submitted via: ExactAudioCopy v0.99pb4
#
DISCID=7f0ad60a
DTITLE=Lafayette Leake - easy blues
DYEAR=1978
DGENRE=Blues
TTITLE0=Feel So Blue
TTITLE1=Train Boogie
TTITLE2=Short Dressed Woman
TTITLE3=Fine Little Angel (take 2)
TTITLE4=Fast Boogie #2
TTITLE5=Outskirts of the Town
TTITLE6=Trouble in Mind
TTITLE7=Easy Blues
TTITLE8=Fast Boogie #1
TTITLE9=Fine Little Angel (take 1)
EXTD=YEAR: 1978
EXTT0=
EXTT1=
EXTT2=
EXTT3=
EXTT4=
EXTT5=
EXTT6=
EXTT7=
EXTT8=
EXTT9=
PLAYORDER=
